<?xml version="1.0" standalone="no"?>
<!DOCTYPE svg PUBLIC "-//W3C//DTD SVG 20010904//EN"
 "http://www.w3.org/TR/2001/REC-SVG-20010904/DTD/svg10.dtd">
<svg version="1.0" xmlns="http://www.w3.org/2000/svg"
 width="7094.000000pt" height="1855.000000pt" viewBox="0 0 7094.000000 1855.000000"
 preserveAspectRatio="xMidYMid meet">

<g transform="translate(0.000000,1855.000000) scale(0.100000,-0.100000)"
fill="#000000" stroke="none">
<path d="M11078 17033 c-7 -16 -26 -50 -44 -78 -17 -27 -62 -99 -99 -160 -37
-60 -106 -168 -152 -240 -70 -108 -143 -228 -262 -428 -9 -15 -47 -77 -86
-137 -72 -113 -117 -184 -285 -455 -184 -297 -217 -350 -270 -435 -29 -47 -84
-134 -121 -195 -37 -60 -86 -140 -110 -178 -24 -37 -71 -110 -104 -163 -33
-52 -73 -116 -89 -141 -27 -42 -28 -48 -15 -69 32 -54 186 -295 238 -375 31
-47 110 -172 176 -278 120 -193 235 -375 310 -493 35 -54 131 -207 183 -291
16 -26 83 -132 202 -322 28 -44 92 -145 143 -225 51 -80 108 -172 127 -204 19
-31 73 -118 120 -192 99 -156 291 -462 402 -637 144 -229 171 -272 213 -337
23 -36 49 -78 58 -95 8 -16 29 -47 46 -69 17 -21 31 -44 31 -50 0 -6 -14 -34
-31 -61 -37 -61 -115 -194 -199 -340 -34 -60 -91 -157 -125 -215 -35 -58 -75
-130 -90 -160 -15 -30 -40 -73 -55 -95 -15 -22 -54 -87 -87 -145 -33 -58 -93
-161 -133 -230 -40 -69 -80 -138 -88 -155 -9 -16 -32 -55 -52 -85 -21 -30 -54
-89 -75 -130 -21 -41 -45 -86 -55 -100 -10 -14 -51 -83 -92 -155 -41 -71 -119
-206 -173 -300 -54 -93 -118 -201 -142 -240 -34 -52 -43 -73 -36 -85 6 -8 16
-15 24 -15 141 2 1812 17 2287 20 l642 4 24 -22 c24 -22 108 -152 198 -307 27
-47 56 -92 63 -100 7 -8 23 -35 35 -59 12 -25 37 -68 55 -95 18 -28 75 -123
128 -211 52 -88 120 -201 151 -252 31 -50 56 -94 56 -98 0 -4 15 -30 34 -58
33 -51 147 -237 211 -347 33 -57 90 -152 180 -300 28 -47 64 -107 80 -135 15
-27 42 -72 60 -100 18 -27 113 -185 211 -349 99 -164 197 -329 219 -365 22
-37 62 -104 89 -150 27 -45 58 -87 68 -92 13 -7 280 -7 831 0 1067 14 2459 26
2569 22 48 -1 96 0 108 4 29 9 25 39 -8 51 -29 11 -67 67 -406 604 -27 41 -87
136 -134 211 -48 75 -112 175 -142 223 -30 48 -86 136 -125 196 -134 209 -179
280 -414 652 -20 32 -63 100 -96 153 -33 52 -79 123 -102 158 -23 34 -58 89
-78 122 -19 33 -57 94 -84 135 -27 41 -75 117 -107 169 -59 94 -192 303 -277
436 -25 39 -72 113 -105 165 -65 102 -126 198 -240 378 -90 141 -198 310 -272
427 -96 151 -271 428 -295 465 -12 19 -48 76 -81 127 -32 50 -90 142 -129 203
-88 139 -143 226 -232 365 -39 61 -114 180 -168 265 -54 85 -112 178 -130 205
-18 28 -69 109 -115 180 -45 72 -103 162 -129 202 -25 40 -73 116 -106 169
-33 53 -88 139 -122 190 -35 52 -63 97 -63 101 0 3 -28 49 -63 102 -35 53 -81
124 -103 159 -21 34 -54 86 -73 115 -18 29 -68 106 -109 172 -41 66 -98 156
-127 200 -49 77 -128 200 -223 350 -24 39 -80 125 -123 193 -43 68 -79 126
-79 131 0 4 -14 26 -31 49 -17 23 -66 97 -108 165 -240 378 -466 735 -481 757
-70 105 -130 200 -143 225 -8 17 -39 66 -69 110 -29 44 -78 120 -108 168 -30
49 -86 138 -125 198 -38 60 -108 170 -155 245 -47 74 -124 195 -172 269 -48
74 -94 150 -102 170 -8 19 -48 84 -88 143 -39 59 -104 155 -143 215 -38 59
-83 128 -100 153 -16 25 -50 79 -75 119 -25 40 -57 90 -71 112 -14 21 -70 109
-125 196 -54 87 -116 184 -136 215 -21 32 -47 75 -59 97 -12 22 -34 56 -49 75
-15 19 -37 54 -49 78 -25 49 -37 52 -53 15z"/>
<path d="M9180 15164 c-19 -8 -107 -39 -195 -69 -225 -75 -363 -125 -485 -174
-58 -23 -141 -56 -185 -73 -139 -54 -415 -174 -560 -243 -77 -37 -169 -78
-205 -93 -36 -14 -96 -45 -134 -70 -38 -25 -95 -55 -126 -68 -62 -25 -154 -76
-182 -101 -10 -9 -68 -44 -130 -78 -62 -35 -153 -91 -203 -124 -241 -165 -439
-303 -472 -330 -21 -17 -132 -106 -248 -198 -223 -178 -504 -448 -665 -639
-46 -54 -104 -122 -129 -149 -52 -57 -169 -209 -236 -305 -112 -163 -216 -322
-224 -343 -5 -13 -30 -55 -55 -94 -46 -72 -146 -271 -211 -423 -20 -47 -54
-121 -75 -165 -21 -44 -56 -134 -78 -200 -23 -66 -52 -151 -65 -190 -61 -172
-125 -444 -172 -725 -9 -58 -23 -132 -31 -165 -21 -92 -54 -565 -54 -785 0
-236 30 -687 55 -821 8 -46 31 -180 50 -298 20 -118 54 -284 77 -370 22 -86
46 -183 54 -216 20 -94 81 -259 99 -270 12 -8 23 -1 53 35 20 24 101 116 180
202 l144 158 -21 63 c-49 152 -115 510 -160 862 -34 265 -36 304 -35 685 0
345 3 418 22 580 13 102 29 210 37 240 8 30 21 98 30 150 27 160 71 339 113
460 21 63 49 144 60 180 47 145 73 211 135 346 89 192 141 295 193 381 24 40
44 77 44 82 0 6 25 46 55 90 30 44 55 84 55 89 0 9 41 68 163 231 34 46 79
109 101 140 21 31 77 99 125 151 47 52 107 120 133 150 65 78 355 363 465 456
162 139 185 158 267 221 186 143 351 256 531 364 39 23 84 54 100 69 17 16 77
52 135 80 58 29 125 67 150 84 25 17 70 44 100 60 129 67 420 211 480 236 469
200 586 245 812 309 51 15 118 61 118 82 0 4 59 127 131 273 71 146 127 270
124 276 -8 13 -13 12 -55 -6z"/>
<path d="M13020 15170 c0 -6 59 -130 130 -275 72 -146 130 -269 130 -273 0 -5
13 -20 28 -35 21 -20 69 -40 173 -72 80 -24 167 -54 194 -65 28 -12 113 -46
190 -75 77 -29 191 -76 252 -104 62 -28 116 -51 119 -51 20 0 518 -258 659
-341 46 -27 86 -49 89 -49 4 0 46 -25 94 -57 48 -31 132 -85 187 -121 105 -68
213 -144 400 -283 107 -79 345 -280 479 -405 192 -179 418 -427 583 -639 88
-113 319 -460 389 -585 156 -279 290 -590 375 -870 22 -74 45 -146 49 -160 30
-84 105 -461 130 -650 52 -394 54 -927 5 -1330 -16 -133 -40 -296 -55 -370 -5
-25 -16 -85 -25 -135 -24 -136 -76 -368 -86 -387 -25 -46 -12 -67 144 -237 83
-92 162 -181 173 -197 32 -43 50 -25 85 81 27 84 38 120 90 310 17 63 66 290
103 485 19 98 54 364 78 590 8 69 12 260 12 480 0 365 -1 372 -45 740 -26 221
-94 558 -155 770 -74 259 -238 687 -328 860 -13 25 -49 92 -79 150 -121 234
-277 477 -449 705 -84 109 -287 351 -384 455 -173 187 -511 492 -723 654 -51
39 -117 89 -146 111 -103 79 -495 336 -651 426 -301 176 -481 269 -864 447
-116 55 -453 195 -520 217 -30 10 -100 38 -155 63 -122 54 -193 80 -447 166
-200 67 -228 74 -228 56z"/>
<path d="M43050 14191 l0 -578 1797 -1769 1796 -1769 124 -3 123 -3 0 2341 0
2340 -502 -2 -503 -3 -5 -1256 -5 -1255 -1285 1267 -1285 1268 -127 0 -128 1
0 -579z"/>
<path d="M24297 14683 c-26 -53 -388 -703 -464 -833 -14 -25 -3 -46 389 -740
222 -393 698 -1238 1057 -1877 l653 -1163 630 0 c500 0 629 3 625 13 -2 6
-582 1040 -1289 2297 -706 1257 -1292 2304 -1302 2328 l-19 42 -123 0 -124 0
-33 -67z"/>
<path d="M57580 14255 l0 -495 1411 0 1411 0 -23 -37 c-157 -265 -447 -493
-744 -587 -197 -63 -136 -59 -1137 -63 l-918 -4 0 -1499 0 -1500 505 0 505 0
0 1004 0 1005 448 4 c363 3 465 7 542 21 52 9 102 19 111 22 13 3 164 -234
654 -1026 l638 -1030 589 0 c558 0 588 1 579 18 -5 9 -349 565 -764 1236
l-755 1219 76 60 c403 320 704 803 816 1307 14 63 31 156 38 205 14 98 17 508
4 588 l-7 47 -1990 0 -1989 0 0 -495z"/>
<path d="M27780 14240 l0 -500 1038 0 c1127 0 1113 1 1296 -57 481 -150 833
-536 937 -1026 31 -144 31 -380 0 -524 -85 -403 -345 -745 -708 -931 -55 -28
-141 -65 -190 -82 -180 -60 -182 -60 -799 -60 l-564 0 0 995 0 995 -505 0
-505 0 0 -1490 0 -1490 1148 2 1147 3 125 28 c631 142 1154 497 1504 1022 183
274 317 634 361 968 20 154 20 450 0 604 -53 408 -226 815 -487 1143 -290 366
-732 665 -1173 793 -325 95 -319 95 -1557 101 l-1068 6 0 -500z"/>
<path d="M32093 14733 c75 -140 1682 -2993 1686 -2993 6 0 624 1086 629 1104
1 6 -235 434 -526 951 l-528 940 -633 3 c-348 1 -630 -1 -628 -5z"/>
<path d="M35552 13452 c-397 -708 -869 -1545 -1048 -1860 l-325 -572 253 -475
253 -475 136 0 137 0 938 1698 c1179 2135 1596 2887 1624 2935 l22 37 -634 0
-633 -1 -723 -1287z"/>
<path d="M38100 14245 l0 -495 2115 0 2115 0 0 495 0 495 -2115 0 -2115 0 0
-495z"/>
<path d="M47610 14245 l0 -495 2135 0 2135 0 0 495 0 495 -2135 0 -2135 0 0
-495z"/>
<path d="M52593 13178 c3 -1557 3 -1563 24 -1656 33 -143 59 -216 129 -357 75
-153 155 -264 290 -399 365 -365 815 -590 1344 -673 160 -25 528 -24 688 1
440 69 828 239 1167 513 381 308 576 655 615 1095 6 69 10 679 10 1576 l0
1462 -505 0 -505 0 0 -1312 c0 -1404 0 -1411 -50 -1570 -111 -358 -408 -649
-768 -754 -571 -165 -1189 160 -1377 725 -57 172 -55 118 -55 1572 l0 1339
-505 0 -505 0 3 -1562z"/>
<path d="M62570 14245 l0 -495 2115 0 2115 0 0 495 0 495 -2115 0 -2115 0 0
-495z"/>
<path d="M8906 13457 c-13 -18 -47 -70 -76 -117 -29 -47 -92 -146 -140 -220
-48 -74 -134 -209 -190 -300 -57 -91 -111 -176 -120 -190 -10 -14 -50 -77 -90
-140 -40 -63 -97 -153 -127 -200 -31 -47 -97 -150 -147 -230 -50 -80 -103
-163 -117 -185 -23 -35 -131 -206 -363 -573 -83 -131 -218 -342 -273 -425 -21
-32 -51 -80 -68 -107 -88 -142 -139 -223 -187 -297 -66 -102 -72 -112 -227
-358 -129 -203 -179 -282 -286 -449 -33 -51 -85 -133 -115 -181 -60 -95 -170
-269 -205 -325 -13 -19 -65 -100 -117 -180 -51 -80 -123 -191 -158 -248 -36
-56 -108 -170 -160 -252 -52 -82 -102 -162 -111 -177 -9 -15 -56 -89 -104
-163 -48 -74 -101 -157 -117 -185 -16 -27 -43 -71 -61 -97 -18 -26 -57 -86
-87 -134 -30 -48 -82 -129 -115 -180 -33 -52 -82 -129 -109 -171 -27 -43 -68
-107 -91 -143 -23 -36 -68 -108 -101 -160 -32 -52 -86 -138 -120 -190 -34 -52
-91 -142 -127 -200 -59 -95 -146 -231 -232 -365 -40 -62 -265 -416 -362 -570
-188 -297 -259 -403 -286 -427 -23 -19 -29 -30 -21 -38 11 -11 1683 -14 2454
-5 212 3 2041 10 4065 16 2024 6 3711 11 3750 12 86 2 93 17 43 86 -18 25
-106 163 -195 306 -234 376 -239 385 -340 544 -120 191 -191 305 -263 421 -78
127 -122 198 -372 595 -41 66 -88 141 -103 168 -53 92 32 83 -882 91 -444 4
-938 9 -1098 11 -159 2 -692 7 -1182 11 -976 7 -940 5 -895 62 12 15 29 41 38
57 9 17 35 59 59 95 85 131 155 242 511 813 84 134 159 252 278 437 62 96 144
227 183 290 85 140 131 214 303 485 73 116 153 244 178 285 24 41 68 111 97
155 28 44 76 118 105 165 131 208 168 266 208 326 23 35 42 70 42 77 0 7 -15
33 -32 57 -18 24 -49 69 -68 101 -32 52 -72 116 -210 328 -25 38 -70 109 -101
158 -31 48 -92 143 -135 210 -89 138 -280 435 -362 563 -71 112 -147 230 -235
365 -84 128 -167 259 -256 400 -35 55 -88 138 -118 185 -30 47 -88 137 -129
200 -41 63 -74 118 -74 121 0 4 -7 9 -15 13 -9 3 -24 -7 -39 -27z"/>
<path d="M22600 11658 c-448 -798 -832 -1482 -853 -1520 l-39 -68 634 2 633 3
537 955 c296 525 537 957 538 960 0 7 -619 1102 -628 1112 -4 3 -374 -647
-822 -1444z"/>
<path d="M38100 11565 l0 -1495 2115 0 2115 0 0 495 0 495 -1610 0 -1610 0 0
500 0 500 1400 0 1400 0 0 500 0 500 -1905 0 -1905 0 0 -1495z"/>
<path d="M62570 11565 l0 -1495 2115 0 2115 0 0 495 0 495 -1610 0 -1610 0 0
500 0 500 1400 0 1400 0 0 500 0 500 -1905 0 -1905 0 0 -1495z"/>
<path d="M49210 11560 l0 -1490 500 0 500 0 0 1490 0 1490 -500 0 -500 0 0
-1490z"/>
<path d="M43050 11357 l0 -1277 505 0 505 0 0 780 0 781 -388 382 c-213 210
-440 434 -505 496 l-117 115 0 -1277z"/>
<path d="M23204 6955 c-51 -30 -89 -99 -103 -185 -15 -88 -15 -2091 -1 -2179
18 -110 68 -179 148 -201 54 -15 1058 -14 1103 1 78 26 119 95 119 196 0 72
-22 134 -56 165 -53 46 -69 48 -514 48 l-420 0 0 988 c0 1088 2 1049 -61 1126
-58 69 -141 85 -215 41z"/>
<path d="M35285 6965 c-56 -20 -126 -99 -158 -178 -45 -113 -627 -2079 -639
-2157 -13 -88 -4 -131 41 -202 49 -77 129 -106 206 -74 58 24 86 85 162 346
24 85 53 185 64 223 l20 67 393 0 393 0 28 -102 c83 -299 138 -454 178 -496
87 -94 226 -51 285 87 19 47 18 149 -3 231 -9 36 -139 468 -290 960 -150 492
-283 929 -295 970 -31 107 -67 188 -106 242 -63 86 -176 119 -279 83z m234
-1080 c77 -275 138 -501 137 -503 -2 -1 -131 -1 -288 0 l-284 3 140 517 c94
343 144 512 149 500 4 -9 70 -242 146 -517z"/>
<path d="M46753 6965 c-49 -21 -110 -90 -130 -148 -17 -49 -18 -117 -18 -1187
l0 -1135 24 -48 c28 -57 70 -94 117 -103 80 -15 139 19 181 104 l28 57 5 809
5 808 406 -818 c435 -878 449 -902 544 -945 51 -24 119 -24 170 0 49 22 68 43
97 106 l23 50 3 1134 c3 1242 4 1201 -55 1272 -75 89 -200 74 -257 -31 -14
-26 -30 -78 -36 -116 -6 -41 -10 -383 -10 -834 l-1 -765 -425 850 c-234 468
-436 864 -450 881 -48 64 -149 91 -221 59z"/>
<path d="M52824 6966 c-45 -20 -90 -80 -108 -145 -14 -51 -16 -179 -16 -1162
0 -1194 -1 -1160 52 -1239 33 -48 70 -72 121 -77 66 -8 129 25 164 85 53 90
53 85 53 1232 0 1147 0 1142 -53 1232 -44 75 -136 107 -213 74z"/>
<path d="M57733 6965 c-49 -21 -110 -90 -130 -148 -17 -49 -18 -117 -18 -1187
l0 -1135 24 -48 c28 -57 70 -94 117 -103 80 -15 139 19 181 104 l28 57 5 809
5 808 406 -818 c435 -878 449 -902 544 -945 51 -24 119 -24 170 0 49 22 68 43
97 106 l23 50 3 1134 c3 1242 4 1201 -55 1272 -75 89 -200 74 -257 -31 -14
-26 -30 -78 -36 -116 -6 -41 -10 -383 -10 -834 l-1 -765 -425 850 c-234 468
-436 864 -450 881 -48 64 -149 91 -221 59z"/>
<path d="M64435 6970 c-321 -50 -580 -262 -715 -586 -153 -368 -170 -935 -40
-1333 156 -478 500 -732 959 -708 217 11 391 74 601 217 126 86 173 152 190
267 12 86 13 597 0 682 -13 91 -46 150 -101 181 -44 25 -46 25 -334 28 -191 2
-303 0 -327 -7 -82 -25 -133 -139 -109 -244 12 -55 39 -90 91 -118 18 -10 81
-15 228 -17 l202 -4 0 -204 0 -204 -52 -34 c-82 -52 -167 -92 -248 -117 -103
-32 -286 -33 -372 -1 -284 104 -430 442 -415 957 13 408 126 671 342 796 112
65 299 76 411 25 110 -51 164 -113 262 -304 30 -58 66 -113 87 -130 88 -78
209 -37 263 87 27 61 20 181 -15 278 -87 240 -276 413 -523 477 -77 20 -297
29 -385 16z"/>
<path d="M28917 6926 c-63 -23 -97 -57 -124 -126 -17 -42 -18 -114 -21 -1104
-2 -693 1 -1078 8 -1114 16 -88 45 -138 98 -170 l47 -27 585 -3 c322 -2 599 0
617 3 161 29 181 327 26 391 -26 11 -130 14 -513 14 l-480 0 0 365 0 364 444
3 c431 3 445 4 473 24 15 11 38 40 51 64 45 89 20 222 -51 274 -28 20 -42 21
-473 24 l-444 3 0 314 0 314 479 3 c469 3 480 3 508 24 110 82 110 266 0 348
-28 21 -37 21 -610 23 -469 2 -589 0 -620 -11z"/>
<path d="M40748 6926 c-64 -23 -89 -46 -116 -104 l-27 -57 0 -1125 0 -1125 24
-53 c13 -28 39 -65 57 -82 81 -71 212 -42 263 58 37 74 41 130 41 587 l0 445
97 0 c138 0 201 -20 272 -86 76 -70 132 -168 277 -483 182 -399 199 -432 233
-478 102 -139 288 -95 331 79 10 39 9 58 -9 128 -31 125 -86 265 -166 428 -91
186 -179 318 -267 405 l-69 68 33 11 c99 35 196 94 263 162 80 81 124 156 157
271 20 69 23 103 23 250 0 196 -12 258 -76 393 -49 102 -142 205 -227 250
-120 64 -131 65 -627 69 -363 2 -457 0 -487 -11z m823 -395 c127 -40 200 -161
201 -332 0 -127 -21 -189 -86 -254 -42 -43 -67 -58 -122 -76 -62 -20 -94 -23
-321 -27 l-253 -4 0 357 0 357 273 -5 c162 -2 287 -9 308 -16z"/>
<path d="M6805 4873 c-27 -2 -142 -12 -255 -23 -113 -10 -212 -18 -220 -18
-65 4 -66 -21 -3 -65 26 -17 74 -53 107 -78 34 -25 126 -89 206 -142 80 -53
165 -111 190 -128 212 -144 765 -441 1100 -591 602 -271 1157 -453 1795 -589
162 -35 585 -98 760 -114 39 -3 104 -11 145 -16 41 -5 129 -13 195 -19 66 -5
121 -14 123 -20 5 -14 509 -14 514 0 2 5 71 16 153 25 458 45 457 45 750 91
510 80 1195 285 1652 493 62 28 115 51 117 51 2 0 85 39 183 87 462 225 975
541 1398 861 39 29 86 63 105 75 77 50 55 55 -358 87 l-154 12 -57 -39 c-31
-22 -81 -54 -111 -70 -30 -17 -95 -54 -145 -83 -352 -206 -895 -451 -1345
-606 -349 -120 -567 -182 -955 -271 -342 -78 -751 -138 -1190 -173 -205 -17
-792 -14 -1010 5 -265 23 -719 86 -895 125 -114 25 -457 109 -495 120 -368
114 -698 231 -880 312 -55 25 -129 58 -165 73 -182 79 -645 324 -842 446 -48
30 -111 69 -140 87 -29 18 -75 48 -102 67 -50 36 -51 36 -171 28z"/>
</g>
</svg>
